/* XPM */
static char * mouse16_plus_shadowless_dark_opacity_xpm[] = {
"16 16 99 2",
"  	c None",
". 	c #969696",
"+ 	c #959595",
"@ 	c #919191",
"# 	c #7A7A7A",
"$ 	c #939393",
"% 	c #9A9A9A",
"& 	c #B3B3B3",
"* 	c #D0D0D0",
"= 	c #E0E0E0",
"- 	c #A2A2A2",
"; 	c #E1E1E1",
"> 	c #D1D1D1",
", 	c #B1B1B1",
"' 	c #909090",
") 	c #898989",
"! 	c #ACACAC",
"~ 	c #DEDEDE",
"{ 	c #F4F4F4",
"] 	c #FBFBFB",
"^ 	c #A8A8A8",
"/ 	c #B2B2B2",
"( 	c #8F8F8F",
"_ 	c #8B8B8B",
": 	c #CACACA",
"< 	c #F1F1F1",
"[ 	c #FAFAFA",
"} 	c #D3D3D3",
"| 	c #CCCCCC",
"1 	c #8D8D8D",
"2 	c #D2D2D2",
"3 	c #F5F5F5",
"4 	c #F8F8F8",
"5 	c #AEAEAE",
"6 	c #868686",
"7 	c #F6F6F6",
"8 	c #888888",
"9 	c #6C6C6C",
"0 	c #999999",
"a 	c #A6A6A6",
"b 	c #AFAFAF",
"c 	c #A7A7A7",
"d 	c #929292",
"e 	c #787878",
"f 	c #D8D8D8",
"g 	c #ECECEC",
"h 	c #F3F3F3",
"i 	c #727272",
"j 	c #CBCBCB",
"k 	c #E7E7E7",
"l 	c #EAEAEA",
"m 	c #747474",
"n 	c #C2C2C2",
"o 	c #E3E3E3",
"p 	c #3DAF4C",
"q 	c #179917",
"r 	c #55B355",
"s 	c #7C7C7C",
"t 	c #C6C6C6",
"u 	c #CFCFCF",
"v 	c #D5D5D5",
"w 	c #D7D7D7",
"x 	c #049F04",
"y 	c #54E967",
"z 	c #2BA62B",
"A 	c #797979",
"B 	c #878787",
"C 	c #BDBDBD",
"D 	c #C1C1C1",
"E 	c #C7C7C7",
"F 	c #3CA749",
"G 	c #009B02",
"H 	c #0B940B",
"I 	c #42E656",
"J 	c #2BA02B",
"K 	c #55A955",
"L 	c #696969",
"M 	c #BABABA",
"N 	c #009400",
"O 	c #24E23E",
"P 	c #2E9A2E",
"Q 	c #777777",
"R 	c #949494",
"S 	c #B6B6B6",
"T 	c #138932",
"U 	c #137D13",
"V 	c #238B23",
"W 	c #00DD1F",
"X 	c #2B922B",
"Y 	c #55A255",
"Z 	c #7B7B7B",
"` 	c #6A6A6A",
" .	c #636363",
"..	c #448544",
"+.	c #05CF05",
"@.	c #2B892B",
"#.	c #618D61",
"$.	c #357C35",
"%.	c #558E55",
"        . + @ # $ % .           ",
"      @ & * = - ; > , '         ",
"    ) ! ~ { ] ^ ] { ~ / (       ",
"    _ : < [ } ! } [ < | 1       ",
"    _ 2 3 4 5 4 5 4 3 2 1       ",
"    6 * < 7 , 7 , 7 < * 8       ",
"    9 @ 0 a b & b c % d 9       ",
"    e f g < h h h < g f #       ",
"    i j ~ k l l l k ~ j i       ",
"    m n > ~ o o o ~ > p q r     ",
"    s b t u v w v u t x y z     ",
"    A B C D t E t F G H I J J K ",
"      L c M M M M N O O O O O P ",
"        Q R S C S T U V W X X Y ",
"          Z `  .` Z   ..+.@.    ",
"                      #.$.%.    "};
