/* XPM */
static char * editor_icon16_xpm[] = {
"16 16 77 1",
" 	c None",
".	c #878787",
"+	c #868686",
"@	c #828282",
"#	c #696969",
"$	c #848484",
"%	c #8C8C8C",
"&	c #A7A7A7",
"*	c #C8C8C8",
"=	c #DADADA",
"-	c #949494",
";	c #DBDBDB",
">	c #C9C9C9",
",	c #A5A5A5",
"'	c #818181",
")	c #7A7A7A",
"!	c #9F9F9F",
"~	c #D8D8D8",
"{	c #F2F2F2",
"]	c #FBFBFB",
"^	c #9B9B9B",
"/	c #A6A6A6",
"(	c #808080",
"_	c #7C7C7C",
":	c #C1C1C1",
"<	c #EFEFEF",
"[	c #FAFAFA",
"}	c #CBCBCB",
"|	c #C4C4C4",
"1	c #7E7E7E",
"2	c #CACACA",
"3	c #F3F3F3",
"4	c #F6F6F6",
"5	c #A2A2A2",
"6	c #777777",
"7	c #F4F4F4",
"8	c #797979",
"9	c #5B5B5B",
"0	c #8A8A8A",
"a	c #999999",
"b	c #A3A3A3",
"c	c #9A9A9A",
"d	c #676767",
"e	c #D1D1D1",
"f	c #E8E8E8",
"g	c #F1F1F1",
"h	c #AEAEAE",
"i	c #D7D7D7",
"j	c #616161",
"k	c #C2C2C2",
"l	c #E3E3E3",
"m	c #E6E6E6",
"n	c #A8A8A8",
"o	c #636363",
"p	c #B8B8B8",
"q	c #DDDDDD",
"r	c #7B7B7B",
"s	c #AAAAAA",
"t	c #555555",
"u	c #6B6B6B",
"v	c #BCBCBC",
"w	c #C7C7C7",
"x	c #737373",
"y	c #BFBFBF",
"z	c #646464",
"A	c #686868",
"B	c #787878",
"C	c #B2B2B2",
"D	c #B7B7B7",
"E	c #B5B5B5",
"F	c #585858",
"G	c #AFAFAF",
"H	c #666666",
"I	c #858585",
"J	c #6A6A6A",
"K	c #595959",
"L	c #9D9D9D",
"    .+@#$%.     ",
"   @&*=-;>,'    ",
"  )!~{]^]{~/(   ",
"  _:<[}!}[<|1   ",
"  _2345454321   ",
"  6*<7,7,7<*8   ",
"  9@0ab&bc009   ",
"  def<g+h+ii+h+ ",
"  jk~lmnieeeein ",
"  op>~qr>stts>r ",
"  ubvwxiyz{{zyix",
"  ABCDuEEr{{rEEu",
"   FcGGzsi00isz ",
"    HIs(ibiibi( ",
"     JKKrKLLKrK ",
"          tt    "};
