/* XPM */
static char * Z:\_ext\_dev\Handy_Clicks\icons\editor_icon32_v2_xpm[] = {
"16 16 99 2",
"  	c None",
". 	c #9AA7B1",
"+ 	c #97A4AF",
"@ 	c #9AA7B2",
"# 	c #97A2AE",
"$ 	c #B1B9C2",
"% 	c #FBFAFB",
"& 	c #FFFFFF",
"* 	c #8B97A4",
"= 	c #AEB8BF",
"- 	c #FBFBFB",
"; 	c #727D8B",
"> 	c #AEB7BF",
", 	c #8E9BA7",
"' 	c #CED1D4",
") 	c #F7F6F7",
"! 	c #FDFCFC",
"~ 	c #A0ACB5",
"{ 	c #ABB5BE",
"] 	c #B6BEC6",
"^ 	c #FCFBFC",
"/ 	c #F9F9F9",
"( 	c #CDD1D4",
"_ 	c #909DA8",
": 	c #8E9AA6",
"< 	c #DADDDD",
"[ 	c #F8F7F8",
"} 	c #FBFAFA",
"| 	c #7F8C99",
"1 	c #F2F1F0",
"2 	c #FBF9FA",
"3 	c #F7F7F7",
"4 	c #E7E7E7",
"5 	c #8D99A4",
"6 	c #E6E5E6",
"7 	c #F7F7F6",
"8 	c #FAF9F8",
"9 	c #737F8D",
"0 	c #D4D4D3",
"a 	c #727F8D",
"b 	c #8D99A5",
"c 	c #97A2AC",
"d 	c #74808E",
"e 	c #8795A1",
"f 	c #909FAA",
"g 	c #93A1AD",
"h 	c #95A3AE",
"i 	c #96A4AF",
"j 	c #8F9DA9",
"k 	c #999999",
"l 	c #8894A1",
"m 	c #DFDEDF",
"n 	c #EEEDED",
"o 	c #ECEAEB",
"p 	c #959595",
"q 	c #B9B9B9",
"r 	c #DDDDDD",
"s 	c #86919E",
"t 	c #D8D8D8",
"u 	c #E0E0E1",
"v 	c #E1E2E3",
"w 	c #E0E1E2",
"x 	c #B4B4B4",
"y 	c #808C98",
"z 	c #BDC1C6",
"A 	c #D7D7D9",
"B 	c #DCDDDE",
"C 	c #DBDCDD",
"D 	c #8A8A8A",
"E 	c #D1D1D1",
"F 	c #B6B6B6",
"G 	c #666666",
"H 	c #757F89",
"I 	c #A8AEB5",
"J 	c #CDCDCF",
"K 	c #D7D8DA",
"L 	c #838383",
"M 	c #C8C8C8",
"N 	c #757575",
"O 	c #ADB2B9",
"P 	c #88929E",
"Q 	c #CBCDCC",
"R 	c #CBCDCE",
"S 	c #7C7C7C",
"T 	c #BFBFBF",
"U 	c #CBCCCC",
"V 	c #798390",
"W 	c #A7ACB3",
"X 	c #C6C7C8",
"Y 	c #C2C4C5",
"Z 	c #7B8694",
"` 	c #A5A9B0",
" .	c #C4C5C6",
"..	c #8F8F8F",
"+.	c #AFAFAF",
"@.	c #737D8A",
"#.	c #798391",
"$.	c #6A6A6A",
"%.	c #AAAAAA",
"        . + + @ + + .           ",
"      # $ % & * & % $ #         ",
"      = - & & ; & & - >         ",
"    , ' ) ! ~ { ] ^ / ( _       ",
"    : < [ } | 1 | 2 3 4 :       ",
"    5 6 7 8 9 0 a 8 7 6 b       ",
"    c d e f g h i j k k 5       ",
"    l m n o o p q p r r p q p   ",
"    s t u v w x r t t t t r x   ",
"    y z A B C D E F G G F E D   ",
"    H I J K L r M N J O N M r L ",
"      P Q R S T T D U P D T T S ",
"      V W X Y N F r k k r F N   ",
"        Z `  ...r +.r r +.r ..  ",
"          @.#.$.D $.%.%.$.D $.  ",
"                    G G         "};
