/* XPM */
static char * editor_icon16_xpm[] = {
"16 16 77 1",
" 	c None",
".	c #838383",
"+	c #828282",
"@	c #7E7E7E",
"#	c #646464",
"$	c #808080",
"%	c #898989",
"&	c #A5A5A5",
"*	c #C8C8C8",
"=	c #DCDCDC",
"-	c #919191",
";	c #DDDDDD",
">	c #C9C9C9",
",	c #A3A3A3",
"'	c #7D7D7D",
")	c #757575",
"!	c #9D9D9D",
"~	c #D9D9D9",
"{	c #F5F5F5",
"]	c #FFFFFF",
"^	c #989898",
"/	c #A4A4A4",
"(	c #7B7B7B",
"_	c #777777",
":	c #C1C1C1",
"<	c #F1F1F1",
"[	c #FEFEFE",
"}	c #CBCBCB",
"|	c #C4C4C4",
"1	c #797979",
"2	c #CACACA",
"3	c #F6F6F6",
"4	c #F9F9F9",
"5	c #A0A0A0",
"6	c #727272",
"7	c #F7F7F7",
"8	c #747474",
"9	c #555555",
"0	c #878787",
"a	c #969696",
"b	c #A1A1A1",
"c	c #979797",
"d	c #626262",
"e	c #D1D1D1",
"f	c #EAEAEA",
"g	c #F4F4F4",
"h	c #ACACAC",
"i	c #D8D8D8",
"j	c #5B5B5B",
"k	c #C2C2C2",
"l	c #E5E5E5",
"m	c #E8E8E8",
"n	c #A6A6A6",
"o	c #5E5E5E",
"p	c #B7B7B7",
"q	c #DFDFDF",
"r	c #767676",
"s	c #A8A8A8",
"t	c #4F4F4F",
"u	c #666666",
"v	c #BCBCBC",
"w	c #C7C7C7",
"x	c #6E6E6E",
"y	c #BFBFBF",
"z	c #5F5F5F",
"A	c #636363",
"B	c #737373",
"C	c #B0B0B0",
"D	c #B6B6B6",
"E	c #B3B3B3",
"F	c #525252",
"G	c #ADADAD",
"H	c #616161",
"I	c #818181",
"J	c #656565",
"K	c #535353",
"L	c #9A9A9A",
"    .+@#$%.     ",
"   @&*=-;>,'    ",
"  )!~{]^]{~/(   ",
"  _:<[}!}[<|1   ",
"  _2345454321   ",
"  6*<7,7,7<*8   ",
"  9@0ab&bc009   ",
"  def<g+h+ii+h+ ",
"  jk~lmnieeeein ",
"  op>~qr>stts>r ",
"  ubvwxiyzmmzyix",
"  ABCDuEErmmrEEu",
"   FcGGzsi00isz ",
"    HIs(ibiibi( ",
"     JKKrKLLKrK ",
"          tt    "};
