/* XPM */
static char * Z:\_ext\_dev\Handy_Clicks\icons\FatCow\settings_icon_xpm[] = {
"16 16 112 2",
"  	c None",
". 	c #9AA7B1",
"+ 	c #97A4AF",
"@ 	c #9AA7B2",
"# 	c #97A2AE",
"$ 	c #B1B9C2",
"% 	c #FBFAFB",
"& 	c #FFFFFF",
"* 	c #8B97A4",
"= 	c #AEB8BF",
"- 	c #FBFBFB",
"; 	c #727D8B",
"> 	c #AEB7BF",
", 	c #8E9BA7",
"' 	c #CED1D4",
") 	c #F7F6F7",
"! 	c #FDFCFC",
"~ 	c #A0ACB5",
"{ 	c #ABB5BE",
"] 	c #B6BEC6",
"^ 	c #FCFBFC",
"/ 	c #F9F9F9",
"( 	c #CDD1D4",
"_ 	c #909DA8",
": 	c #8E9AA6",
"< 	c #DADDDD",
"[ 	c #F8F7F8",
"} 	c #FBFAFA",
"| 	c #7F8C99",
"1 	c #F2F1F0",
"2 	c #FBF9FA",
"3 	c #F7F7F7",
"4 	c #E7E7E7",
"5 	c #8D99A4",
"6 	c #E6E5E6",
"7 	c #F7F7F6",
"8 	c #FAF9F8",
"9 	c #737F8D",
"0 	c #D4D4D3",
"a 	c #727F8D",
"b 	c #8D99A5",
"c 	c #97A2AC",
"d 	c #74808E",
"e 	c #8795A1",
"f 	c #909FAA",
"g 	c #93A1AD",
"h 	c #95A3AE",
"i 	c #96A4AF",
"j 	c #8F9DA9",
"k 	c #818E9A",
"l 	c #758290",
"m 	c #8894A1",
"n 	c #DFDEDF",
"o 	c #EEEDED",
"p 	c #ECEAEB",
"q 	c #8994A1",
"r 	c #86919E",
"s 	c #D8D8D8",
"t 	c #E0E0E1",
"u 	c #E1E2E3",
"v 	c #E0E1E2",
"w 	c #D8D9D8",
"x 	c #808C98",
"y 	c #BDC1C6",
"z 	c #D7D7D9",
"A 	c #DCDDDE",
"B 	c #DBDCDD",
"C 	c #68B569",
"D 	c #44AA44",
"E 	c #51A357",
"F 	c #757F89",
"G 	c #A8AEB5",
"H 	c #CDCDCF",
"I 	c #D7D8DA",
"J 	c #D6D7DA",
"K 	c #D6D7D9",
"L 	c #47AD47",
"M 	c #88EE88",
"N 	c #88929E",
"O 	c #CBCDCC",
"P 	c #CBCDCE",
"Q 	c #D3D4D6",
"R 	c #D4D5D7",
"S 	c #5CA95D",
"T 	c #3CA23C",
"U 	c #51B751",
"V 	c #7CE27C",
"W 	c #359B35",
"X 	c #798390",
"Y 	c #A7ACB3",
"Z 	c #C6C7C8",
"` 	c #C2C4C5",
" .	c #C1C3C5",
"..	c #2E942E",
"+.	c #7EE47E",
"@.	c #73D973",
"#.	c #7B8694",
"$.	c #A5A9B0",
"%.	c #C4C5C6",
"&.	c #C3C4C5",
"*.	c #499549",
"=.	c #278D27",
"-.	c #3AA03A",
";.	c #61C761",
">.	c #208620",
",.	c #737D8A",
"'.	c #798391",
").	c #868F9A",
"!.	c #1C821C",
"~.	c #55BB55",
"{.	c #107610",
"].	c #117711",
"        . + + @ + + .           ",
"      # $ % & * & % $ #         ",
"      = - & & ; & & - >         ",
"    , ' ) ! ~ { ] ^ / ( _       ",
"    : < [ } | 1 | 2 3 4 :       ",
"    5 6 7 8 9 0 a 8 7 6 b       ",
"    c d e f g h i j k l 5       ",
"    m n o p p p p p o n q       ",
"    r s t u v v v u t w r       ",
"    x y z A B B B A C D E       ",
"    F G H I J K J I L M L       ",
"      N O P Q R S T U V U T W   ",
"      X Y Z `  ...M +.@.+.M ..  ",
"        #.$.%.&.*.=.-.;.-.=.>.  ",
"          ,.'.).'.,.!.~.!.      ",
"                    {.].].      "};
